<svg version="1" xmlns="http://www.w3.org/2000/svg" width="682.667" height="682.667" viewBox="0 0 512.000000 512.000000"><path d="M249.7 4.6c-.1.1-5.4.4-11.9.8-6.4.3-12.2.8-13 1-.7.3-3.3.7-5.8 1-21.9 2.5-51.6 11.9-75.4 23.8C106.9 49.6 71.7 80 49.9 112c-2.4 3.6-4.7 6.6-5.1 6.8-.5.2-.8.7-.8 1.2 0 .4-1.7 3.7-3.8 7.1-5.2 8.6-13.3 24.7-17.2 34.4-9.3 22.7-14.6 44.7-17.5 73-.7 6.6-.8 39.6-.1 43.5.2 1.4.7 5.2 1.1 8.5.8 7.7 1.6 12.9 2 13.5.2.3.6 2.6 1 5 2.1 14 10.1 39 17.6 54.8 2.2 4.6 3.6 8.9 3.3 9.5-.4.7-.4.9.1.5.4-.4 3.1 3.4 5.9 8.5 11.3 20.4 24.2 37.4 41.6 54.8 20.1 20.1 38.2 33.4 62.3 45.9 27.2 14.1 57.5 23.6 84.2 26.4 3.3.4 8 .9 10.5 1.2 5.2.6 35.6.6 41.5 0 13.3-1.3 30.4-3.9 34.7-5.2 1-.3 2.8-.7 4.1-1 3.2-.5 20.3-5.8 29.1-8.9 8.8-3.2 37.2-17.2 44.4-22 3-1.9 5.7-3.5 6.2-3.5s1-.4 1.2-.8c.2-.5 2.5-2.3 5.3-4.2 2.7-1.9 5.6-4 6.5-4.6 24.5-19.7 41.6-37.9 56.1-59.4 2.4-3.6 4.6-6.7 4.9-7 .8-.8 5.5-9.3 11-20.2 11.5-22.5 18.6-43.4 23.4-69.3 3.9-20.6 4.9-56.5 2.1-75.5-.2-1.9-.7-5.5-1.1-8-.3-2.4-.7-4.7-.9-5-.2-.3-.6-2.6-1-5-.3-2.5-1.7-8.8-3.1-14-9-34.1-25.1-66.4-47.1-94-12.1-15.3-34.8-36.9-49.5-47.1-40.3-28.1-82.7-43.5-128.3-46.5-8.8-.6-24.5-1.1-24.8-.8zm30.8 34.7c1.7.4 11.2 1.9 14 2.3 2.7.3 9.8 1.8 16.5 3.6C368.4 60 417.1 97.9 446.6 150.5c4.1 7.3 12.3 25.1 15 32.6 3.6 10.2 8.5 30.3 9.9 40.4 1.6 12.5 2 17.5 2 32 0 14.6-1.1 32-2 33.6-.3.3-.7 2.4-.9 4.5-.7 5.5-3.1 15.3-6.1 25.4-12.6 42.2-38.4 80.1-73 107.5-2.7 2.2-5.2 4.2-5.5 4.5-2.1 2.3-20.7 13.8-29.1 18-5.7 2.9-11.1 5.6-11.9 6.1-3.2 1.8-20.1 7.9-28.6 10.3-21.3 5.9-34 7.7-57.4 8.1-53.1.8-100.2-15.7-142.4-50-11.3-9.1-33.2-33-38.3-41.6-1-1.6-2.1-2.9-2.5-2.9-.4 0-.8-.4-.8-.9s-1.6-3.3-3.6-6.3c-5.2-7.8-17.7-33.9-21.3-44.3-3.5-10.3-8.2-28.7-7.6-29.3.2-.3 0-1.2-.5-2.1-.5-.9-1.2-4.4-1.5-7.6-.4-3.3-.9-6.9-1.1-8-.3-1.1-.7-9.4-.9-18.5-.7-24 1.5-42.4 7.7-64.5 19.7-70.7 73.2-126.3 143.5-149 12.4-4.1 31.8-8.2 42.9-9.1 4.4-.4 8.1-.8 8.3-1 .5-.5 37.1.4 39.6.9z"/><path d="M376.4 120.9c-1.6 1-4.7 3.8-6.8 6.2-4.7 5.3-22.8 25-27.5 29.9-1.8 1.9-6.4 6.9-10.1 11-3.7 4.1-8.3 9.1-10.1 11-1.9 2-8.1 8.7-13.9 15-5.8 6.2-12.4 13.4-14.7 15.9-7.5 8.1-12.4 13.5-18.4 20.2l-6 6.6-3.6-1.2c-3.3-1.1-11.8-1.3-16.6-.2-2.1.4-12.7 7.9-12.7 8.9 0 .5-.9 1.7-2 2.8-1.1 1.1-1.8 2-1.6 2 .2 0-.2 2-.9 4.5-4.8 15.9 6.4 32.5 23 34.2 12 1.2 24.3-6.6 28-17.8 1.9-5.5 1.7-16.8-.3-19.2-2.8-3.3-2.7-3.4 19.8-27.7 1.4-1.5 4.6-5 7.1-7.8l4.6-5 2.8 3.1c4 4.6 7.8 10.4 11 16.7 3 5.8 6.7 16 5.9 16-.3 0-.1.8.5 1.7 2.1 4 2.8 17.8 1.6 29-1.3 11.3-8.7 29.2-15.5 37.5l-3 3.7-4.3-2.5c-8-4.6-19.5-2.3-25.3 4.9-4.3 5.5-5.7 12.2-4.1 20 .1.5-2.5 1.9-5.8 2.9-6.9 2.3-29.5 3.3-36.1 1.7-2.1-.5-4.8-1.2-5.8-1.4-7.3-1.7-24.6-9.9-24.6-11.6 0-.5-.7-.9-1.5-.9-2.4 0-16.7-14.9-20.8-21.6-9-15-12.6-27.3-12.8-43.8-.1-7.8 1.7-18.8 4-24.7.5-1.3.9-2.7.9-3.2.3-2.4 8.9-17.1 13.3-22.5 5.6-7 6.2-10.5 1.9-11-2.1-.2-3.5.9-7.6 6-8.7 10.9-12.4 17.9-16.1 29.8-3.4 11.3-3.7 13.5-3.6 27.5.2 23.4 8.7 43.8 25.4 60.5 7.8 7.7 14.8 12.6 25.1 17.5 19.1 9.1 43.8 10.6 64 3.9 4.6-1.5 4.8-1.5 8.5 1 16.3 10.8 36.9-5.3 30.9-24.1-.5-1.6.3-3.4 2.8-6.8 16.3-21.3 22.3-50.1 15.7-75-2.7-10.1-10.2-25.2-15.9-32.4-2.5-3.1-4.8-6.1-5.3-6.6-.8-1.1.6-2.7 18.5-22 6.1-6.6 13.4-14.4 16.1-17.4 2.8-3 6.9-7.6 9.3-10.1l4.3-4.5 4.3 4.7c16.4 17.9 31.2 49.4 35 74.8.3 1.9.8 4.6 1.1 6 .7 3.1.8 31.3.2 35.5-.3 1.6-.8 5.1-1.2 7.7-.3 2.5-1.3 7.3-2.1 10.5s-1.6 6.6-1.9 7.6c-1.4 5.8-6.3 18.4-10.1 25.7-5.8 11.4-6.8 13-14.5 23.5-31.1 42.3-83.3 66-135.2 61.4-13-1.2-16.2-1.7-26.7-4.5-12.6-3.4-12.5-3.3-12.1-8.7.6-10.6-7.8-20.2-18.5-21.1-5.9-.5-11.7 1.3-15.3 4.8l-2.8 2.6-6.4-4.9c-12.5-9.5-27-25.5-36.1-39.7-8.4-13.1-16.3-33-19.8-49.6-2.9-13.9-3.3-18.1-3.3-31.8.1-25.3 5.1-46.5 15.9-68.2 4.4-8.8 10.2-18.4 12.6-20.9.7-.8 2.5-3.1 3.9-5.1 1.4-2.1 4.7-6 7.3-8.8 3.8-4 4.7-5.6 4.2-7.4-1.1-4.5-4.1-3.8-9.8 2.3-16.3 17.2-29.9 41.9-36.1 65.7-3.9 14.8-5.4 26-5.5 41.7-.1 19.1 1.7 30.9 7.6 49.7 4.3 13.9 13.7 32.8 22.3 44.7 7.8 10.8 31.8 35.3 34.7 35.3 2 0 5 4.5 4.3 6.5-.9 2.4.3 9.5 2.4 13.5 5.7 11 20.6 13.9 30.7 5.9l3.7-2.9 13.3 3.4c17.5 4.5 19.3 4.7 39.3 5.1 11.6.2 19.8-.1 26-1.1 9.9-1.6 23.4-4.8 28-6.7 1.7-.6 3.6-1.2 4.3-1.3 2.8-.5 24.9-11.7 31.5-16.1 29.1-19.2 50.2-45.1 63-77.3 3-7.5 7.4-23.5 8.3-30 .3-2.5 1-6.8 1.4-9.5 1.4-9.2.9-33.4-1.1-44-2.6-14.9-2.7-15.2-6.6-26.5-6.3-18.9-17.3-37.9-30.4-53.2-2.7-3.1-4.6-5.8-4.2-6 .5-.1 3.4-3.1 6.5-6.4 3.1-3.4 5.9-6 6.1-5.8.8.9.7-7.8-.2-9.5-1.7-3.2-6.4-4.2-9.7-2.2zM265.1 246.6c6.7 3.4 10.4 12.4 8 19.6-1.3 4.1-6.3 9-10.9 10.8-6.6 2.6-16.2-1.3-19.7-8-7.6-14.6 8-30 22.6-22.4zM441.5 261.5c-4.3 1.8-6.6 4.8-7.2 9.4-1.7 12.8 13.5 19.8 22.1 10.2 2.7-2.9 3.4-11.3 1.2-14.6-3.5-5.3-10.4-7.5-16.1-5zM78 317.1c-1.8.7-6.5 4.9-7 6.3-1.1 2.6-.8 8.2.5 11 5.1 10.6 20.9 8.9 23.4-2.6 1-4.5-.3-8.8-3.6-12-3.2-3.1-9.4-4.3-13.3-2.7z"/></svg>